<svg width="202" height="35" viewBox="0 0 202 35" fill="none" xmlns="http://www.w3.org/2000/svg">
<path d="M62.3836 27.0819C60.0653 27.0819 58.0748 26.6838 56.4122 25.8876C54.7496 25.068 53.3914 24.0026 52.3376 22.6912C51.2839 21.3564 50.4994 19.928 49.9842 18.4059C49.4925 16.8603 49.2466 15.3616 49.2466 13.9098V13.137C49.2466 11.5447 49.5042 9.9757 50.0193 8.43017C50.5345 6.86122 51.319 5.44448 52.3728 4.17996C53.45 2.91543 54.7964 1.9085 56.4122 1.15915C58.0514 0.386383 59.9833 0 62.208 0C64.5263 0 66.5753 0.433217 68.355 1.29965C70.1347 2.16609 71.5514 3.37207 72.6052 4.9176C73.6824 6.43971 74.3146 8.23112 74.502 10.2918H68.7062C68.5423 9.26148 68.1676 8.38334 67.5822 7.6574C66.9968 6.93147 66.2357 6.36946 65.299 5.97137C64.3858 5.57328 63.3554 5.37423 62.208 5.37423C61.0605 5.37423 60.0419 5.57328 59.152 5.97137C58.2622 6.36946 57.5128 6.93147 56.904 7.6574C56.3186 8.38334 55.8619 9.24977 55.5341 10.2567C55.2297 11.2402 55.0774 12.3408 55.0774 13.5585C55.0774 14.7528 55.2297 15.8534 55.5341 16.8603C55.8619 17.8439 56.3303 18.7103 56.9391 19.4596C57.5714 20.1856 58.3441 20.7476 59.2574 21.1457C60.1707 21.5204 61.2127 21.7077 62.3836 21.7077C64.1633 21.7077 65.662 21.2745 66.8797 20.408C68.1208 19.5416 68.8701 18.3473 69.1277 16.8252H74.8883C74.6776 18.6986 74.0453 20.4197 72.9916 21.9887C71.9612 23.5342 70.5445 24.7753 68.7414 25.712C66.9617 26.6253 64.8424 27.0819 62.3836 27.0819Z" fill="#E6E6E6"/>
<path d="M86.0163 27.0819C84.3303 27.0819 82.8316 26.8243 81.5203 26.3092C80.2089 25.7706 79.0966 25.0446 78.1833 24.1314C77.2935 23.2181 76.6144 22.176 76.146 21.0052C75.6777 19.8109 75.4435 18.5581 75.4435 17.2467V16.4388C75.4435 15.1041 75.6777 13.8395 76.146 12.6453C76.6378 11.4276 77.3403 10.3621 78.2536 9.44882C79.1902 8.53555 80.3143 7.82132 81.6256 7.30615C82.937 6.76755 84.4006 6.49826 86.0163 6.49826C87.679 6.49826 89.1542 6.76755 90.4422 7.30615C91.7535 7.82132 92.8659 8.53555 93.7791 9.44882C94.6924 10.3621 95.3949 11.4276 95.8867 12.6453C96.3784 13.8395 96.6243 15.1041 96.6243 16.4388V17.2467C96.6243 18.5581 96.3901 19.8109 95.9218 21.0052C95.4534 22.176 94.7626 23.2181 93.8494 24.1314C92.9595 25.0446 91.8589 25.7706 90.5476 26.3092C89.2362 26.8243 87.7258 27.0819 86.0163 27.0819ZM86.0163 22.34C87.1169 22.34 88.0302 22.1058 88.7561 21.6374C89.4821 21.1691 90.0324 20.5134 90.4071 19.6704C90.8051 18.8274 91.0042 17.8907 91.0042 16.8603C91.0042 15.7597 90.8051 14.7996 90.4071 13.98C90.009 13.137 89.4352 12.4696 88.6859 11.9779C87.96 11.4861 87.0701 11.2402 86.0163 11.2402C84.986 11.2402 84.0961 11.4861 83.3468 11.9779C82.5974 12.4696 82.0237 13.137 81.6256 13.98C81.2509 14.7996 81.0636 15.7597 81.0636 16.8603C81.0636 17.8907 81.2509 18.8274 81.6256 19.6704C82.0003 20.5134 82.5623 21.1691 83.3117 21.6374C84.061 22.1058 84.9626 22.34 86.0163 22.34Z" fill="#E6E6E6"/>
<path d="M98.7903 26.4145V7.16564H103.251V15.4202H102.935C102.935 13.4531 103.181 11.8139 103.673 10.5026C104.188 9.19123 104.961 8.20771 105.991 7.55203C107.021 6.89635 108.274 6.56851 109.75 6.56851H109.995C112.243 6.56851 113.953 7.30615 115.124 8.78143C116.318 10.2333 116.915 12.4462 116.915 15.4202V26.4145H111.295V15.1041C111.295 14.0737 110.991 13.2307 110.382 12.575C109.773 11.9193 108.953 11.5915 107.923 11.5915C106.869 11.5915 106.014 11.931 105.359 12.6101C104.727 13.2658 104.41 14.1322 104.41 15.2094V26.4145H98.7903Z" fill="#E6E6E6"/>
<path d="M128.694 26.6604C126.751 26.6604 125.182 26.4262 123.988 25.9579C122.793 25.4661 121.915 24.6582 121.353 23.5342C120.814 22.3868 120.545 20.8413 120.545 18.8976V1.96704H125.779V19.1084C125.779 20.0217 126.013 20.7242 126.481 21.2159C126.973 21.6843 127.664 21.9184 128.554 21.9184H131.399V26.6604H128.694ZM117.63 11.2754V7.16564H131.399V11.2754H117.63Z" fill="#E6E6E6"/>
<path d="M144.98 26.4145V20.7242H144.032V14.542C144.032 13.5585 143.797 12.8209 143.329 12.3291C142.861 11.8374 142.111 11.5915 141.081 11.5915C140.566 11.5915 139.887 11.6032 139.044 11.6266C138.201 11.65 137.334 11.6852 136.445 11.732C135.555 11.7788 134.747 11.8257 134.021 11.8725V7.13052C134.559 7.08369 135.192 7.03685 135.918 6.99002C136.644 6.94318 137.393 6.90806 138.166 6.88464C138.938 6.86122 139.664 6.84951 140.343 6.84951C142.311 6.84951 143.961 7.13052 145.296 7.69253C146.654 8.25454 147.685 9.10927 148.387 10.2567C149.09 11.3807 149.441 12.8326 149.441 14.6123V26.4145H144.98ZM138.833 26.9063C137.451 26.9063 136.234 26.6604 135.18 26.1687C134.15 25.6769 133.342 24.9744 132.756 24.0611C132.171 23.1244 131.878 22.0121 131.878 20.7242C131.878 19.3191 132.241 18.1717 132.967 17.2818C133.693 16.3686 134.712 15.7012 136.023 15.2797C137.334 14.8348 138.845 14.6123 140.554 14.6123H144.664V17.7385H140.519C139.536 17.7385 138.775 17.9844 138.236 18.4761C137.721 18.9445 137.463 19.5884 137.463 20.408C137.463 21.1808 137.721 21.8131 138.236 22.3048C138.775 22.7732 139.536 23.0073 140.519 23.0073C141.151 23.0073 141.713 22.902 142.205 22.6912C142.72 22.457 143.142 22.0707 143.47 21.5321C143.798 20.9935 143.985 20.2441 144.032 19.284L145.366 20.689C145.249 22.0238 144.922 23.1478 144.383 24.0611C143.868 24.9744 143.142 25.6769 142.205 26.1687C141.292 26.6604 140.168 26.9063 138.833 26.9063Z" fill="#E6E6E6"/>
<path d="M161.094 27.0819C159.431 27.0819 157.979 26.8126 156.738 26.274C155.521 25.712 154.502 24.9627 153.682 24.026C152.863 23.0893 152.254 22.0355 151.856 20.8647C151.458 19.6704 151.259 18.441 151.259 17.1765V16.5091C151.259 15.1977 151.47 13.9449 151.891 12.7506C152.313 11.5329 152.933 10.4558 153.753 9.51907C154.572 8.58238 155.591 7.84474 156.809 7.30615C158.05 6.76755 159.466 6.49826 161.059 6.49826C162.792 6.49826 164.326 6.8378 165.66 7.5169C166.995 8.17258 168.061 9.09756 168.857 10.2918C169.653 11.4861 170.098 12.856 170.192 14.4015H164.677C164.583 13.5351 164.232 12.8092 163.623 12.2237C163.038 11.6149 162.183 11.3105 161.059 11.3105C160.122 11.3105 159.338 11.5447 158.705 12.013C158.097 12.4813 157.64 13.1253 157.336 13.9449C157.031 14.7645 156.879 15.7363 156.879 16.8603C156.879 17.8907 157.019 18.8274 157.3 19.6704C157.581 20.49 158.026 21.134 158.635 21.6023C159.267 22.0472 160.087 22.2697 161.094 22.2697C161.843 22.2697 162.476 22.1409 162.991 21.8833C163.529 21.6023 163.951 21.2276 164.255 20.7593C164.583 20.2675 164.782 19.7055 164.852 19.0733H170.332C170.262 20.6656 169.817 22.0707 168.997 23.2883C168.178 24.4826 167.089 25.4193 165.731 26.0984C164.372 26.7541 162.827 27.0819 161.094 27.0819Z" fill="#E6E6E6"/>
<path d="M180.916 26.6604C178.973 26.6604 177.404 26.4262 176.21 25.9579C175.015 25.4661 174.137 24.6582 173.575 23.5342C173.037 22.3868 172.767 20.8413 172.767 18.8976V1.96704H178.001V19.1084C178.001 20.0217 178.235 20.7242 178.703 21.2159C179.195 21.6843 179.886 21.9184 180.776 21.9184H183.621V26.6604H180.916ZM169.852 11.2754V7.16564H183.621V11.2754H169.852Z" fill="#E6E6E6"/>
<path d="M192.813 27.0117C190.073 27.0117 187.931 26.4497 186.385 25.3256C184.839 24.2016 184.02 22.621 183.926 20.5837H188.914C189.008 21.1925 189.371 21.7428 190.003 22.2346C190.659 22.7029 191.63 22.9371 192.918 22.9371C193.902 22.9371 194.71 22.7732 195.342 22.4453C195.998 22.0941 196.326 21.6023 196.326 20.97C196.326 20.408 196.08 19.9631 195.588 19.6353C195.096 19.284 194.218 19.0381 192.954 18.8976L191.443 18.7571C189.125 18.523 187.38 17.879 186.209 16.8252C185.062 15.7714 184.488 14.425 184.488 12.7858C184.488 11.4276 184.828 10.2918 185.507 9.37856C186.186 8.4653 187.123 7.77449 188.317 7.30615C189.535 6.83781 190.916 6.60363 192.462 6.60363C194.944 6.60363 196.946 7.15394 198.468 8.25454C199.99 9.33173 200.787 10.9007 200.857 12.9614H195.869C195.775 12.3291 195.447 11.8022 194.885 11.3807C194.323 10.9358 193.492 10.7133 192.392 10.7133C191.525 10.7133 190.834 10.8773 190.319 11.2051C189.804 11.5329 189.546 11.9779 189.546 12.5399C189.546 13.0785 189.769 13.4883 190.214 13.7693C190.659 14.0503 191.385 14.2493 192.392 14.3664L193.902 14.5069C196.267 14.7645 198.105 15.4202 199.417 16.474C200.728 17.5277 201.384 18.9445 201.384 20.7242C201.384 22.0121 201.032 23.1361 200.33 24.0962C199.627 25.0329 198.632 25.7589 197.344 26.274C196.056 26.7658 194.546 27.0117 192.813 27.0117Z" fill="#E6E6E6"/>
<path d="M0 26.4145V0.772751H7.93841L13.8044 15.1743H14.4718L20.2675 0.772751H28.3464V26.4145H22.6561V4.5312L23.464 4.60145L16.6847 21.2159H11.2051L4.39071 4.60145L5.26886 4.5312V26.4145H0Z" fill="#222222"/>
<path d="M31.8135 34.0368V29.2597H35.8178C36.4266 29.2597 36.9418 29.1777 37.3633 29.0138C37.7848 28.8733 38.1244 28.6274 38.382 28.2762C38.6396 27.9249 38.8503 27.4449 39.0142 26.836L43.7562 7.16563H49.0953L43.7211 27.9601C43.3464 29.4587 42.8195 30.653 42.1404 31.5429C41.4847 32.4327 40.5949 33.065 39.4709 33.4397C38.3703 33.8377 36.9652 34.0368 35.2558 34.0368H31.8135ZM37.8551 25.993V21.6023H41.9297V25.993H37.8551ZM35.5368 25.993L29.6357 7.16563H35.2909L40.8759 25.993H35.5368Z" fill="#222222"/>
</svg>
